<?xml version="1.0" encoding="UTF-8" standalone="no"?>
<!DOCTYPE svg PUBLIC "-//W3C//DTD SVG 1.1//EN" "http://www.w3.org/Graphics/SVG/1.1/DTD/svg11.dtd">
<svg width="100%" height="100%" viewBox="0 0 500 500" version="1.1" xmlns="http://www.w3.org/2000/svg" xmlnsXlink="http://www.w3.org/1999/xlink" xmlSpace="preserve" xmlnsSerif="http://www.serif.com/" style="fill-rule:evenodd;clip-rule:evenodd;stroke-linejoin:round;stroke-miterlimit:2;">
    <g transform="matrix(1.03387,0,0,1.03387,-131.047,-430.315)">
        <path d="M156.291,688.021L128.854,660.584C127.09,658.821 127.09,655.962 128.854,654.199L156.291,626.761C169.734,533.09 243.908,458.915 337.58,445.473L365.017,418.035C366.78,416.272 369.639,416.272 371.402,418.035L398.84,445.473C492.511,458.915 566.686,533.09 580.129,626.761L607.566,654.199C609.329,655.962 609.329,658.821 607.566,660.584L580.129,688.021C566.686,781.693 492.511,855.867 398.84,869.31L371.402,896.747C369.639,898.511 366.78,898.511 365.017,896.747L337.58,869.31C243.908,855.867 169.734,781.693 156.291,688.021ZM384.503,443.906L368.21,427.613L351.917,443.906C357.295,443.5 362.728,443.294 368.21,443.294C373.691,443.294 379.125,443.5 384.503,443.906ZM154.724,641.098L138.431,657.391L154.724,673.684C154.319,668.306 154.112,662.873 154.112,657.391C154.112,651.91 154.319,646.476 154.724,641.098ZM170.192,625.63L170.157,625.666C168.511,636 167.657,646.597 167.657,657.391C167.657,668.186 168.511,678.783 170.157,689.117L170.192,689.152C171.054,694.559 172.132,699.894 173.418,705.148L173.378,705.108C191.073,777.497 248.104,834.528 320.493,852.223C320.493,852.223 320.49,852.22 320.485,852.215C320.479,852.214 320.475,852.208 320.476,852.201C320.478,852.195 320.484,852.191 320.49,852.192C325.732,853.474 331.055,854.549 336.449,855.409L336.484,855.444C346.818,857.09 357.415,857.944 368.21,857.944C379.004,857.944 389.601,857.09 399.936,855.444L399.971,855.409C405.377,854.547 410.712,853.469 415.966,852.183L415.927,852.223C488.315,834.528 545.347,777.497 563.041,705.108L563.002,705.148C564.287,699.894 565.366,694.559 566.228,689.152L566.263,689.117C567.908,678.783 568.763,668.186 568.763,657.391C568.763,646.597 567.908,636 566.263,625.666L566.228,625.63C565.366,620.224 564.287,614.889 563.002,609.635L563.041,609.674C545.347,537.286 488.315,480.254 415.927,462.56L415.966,462.599C410.712,461.314 405.377,460.235 399.971,459.373L399.936,459.338C389.601,457.693 379.004,456.838 368.21,456.838C357.415,456.838 346.818,457.693 336.484,459.338L336.449,459.373C331.042,460.235 325.707,461.314 320.453,462.599L320.493,462.56C248.104,480.254 191.073,537.286 173.378,609.674L173.418,609.635C172.132,614.889 171.054,620.224 170.192,625.63ZM581.695,673.684L597.988,657.391L581.695,641.098C582.101,646.476 582.307,651.91 582.307,657.391C582.307,662.873 582.101,668.306 581.695,673.684ZM351.917,870.877L368.21,887.17L384.503,870.877C379.125,871.282 373.691,871.489 368.21,871.489C362.728,871.489 357.295,871.282 351.917,870.877Z" style="fill:#95c3d4;"/>
    </g>
    <g transform="matrix(1.16694,0,0,1.16694,-361.227,-310.868)">
        <g transform="matrix(24,0,0,24,514.604,325.934)">
            <path d="M0.653,-0.66L0.653,-0L0.495,-0L0.264,-0.388L0.207,-0.496L0.206,-0.496L0.21,-0.382L0.21,-0L0.086,-0L0.086,-0.66L0.243,-0.66L0.474,-0.273L0.531,-0.164L0.533,-0.164L0.529,-0.278L0.529,-0.66L0.653,-0.66Z" style="fill:#95c3d4;fill-rule:nonzero;"/>
        </g>
    </g>
    <g transform="matrix(1.16694,0,0,1.16694,-169.637,-121.762)">
        <g transform="matrix(24,0,0,24,514.604,325.934)">
            <path d="M0.371,-0.67C0.436,-0.67 0.493,-0.656 0.54,-0.629C0.587,-0.602 0.624,-0.563 0.65,-0.512C0.675,-0.461 0.688,-0.401 0.688,-0.33C0.688,-0.259 0.675,-0.199 0.65,-0.148C0.624,-0.097 0.587,-0.058 0.54,-0.031C0.493,-0.004 0.436,0.01 0.371,0.01C0.306,0.01 0.249,-0.004 0.202,-0.031C0.154,-0.058 0.117,-0.097 0.092,-0.148C0.066,-0.199 0.053,-0.259 0.053,-0.33C0.053,-0.401 0.066,-0.461 0.092,-0.512C0.117,-0.563 0.154,-0.602 0.202,-0.629C0.249,-0.656 0.306,-0.67 0.371,-0.67ZM0.371,-0.557C0.334,-0.557 0.303,-0.548 0.277,-0.531C0.25,-0.514 0.23,-0.488 0.217,-0.454C0.203,-0.42 0.196,-0.379 0.196,-0.33C0.196,-0.281 0.203,-0.24 0.217,-0.206C0.23,-0.172 0.25,-0.146 0.277,-0.129C0.303,-0.112 0.334,-0.103 0.371,-0.103C0.408,-0.103 0.439,-0.112 0.465,-0.129C0.491,-0.146 0.511,-0.172 0.525,-0.206C0.538,-0.24 0.545,-0.281 0.545,-0.33C0.545,-0.379 0.538,-0.42 0.525,-0.454C0.511,-0.488 0.491,-0.514 0.465,-0.531C0.439,-0.548 0.408,-0.557 0.371,-0.557Z" style="fill:#95c3d4;fill-rule:nonzero;"/>
        </g>
    </g>
    <g transform="matrix(1.16694,0,0,1.16694,-549.811,-121.762)">
        <g transform="matrix(24,0,0,24,514.604,325.934)">
            <path d="M0.211,-0L0.019,-0.66L0.166,-0.66L0.296,-0.115L0.428,-0.66L0.56,-0.66L0.694,-0.115L0.823,-0.66L0.964,-0.66L0.772,-0L0.617,-0L0.525,-0.36L0.494,-0.516L0.492,-0.516L0.461,-0.36L0.37,-0L0.211,-0Z" style="fill:#95c3d4;fill-rule:nonzero;"/>
        </g>
    </g>
    <g transform="matrix(1.16694,0,0,1.16694,-359.799,68.8911)">
        <g transform="matrix(24,0,0,24,514.604,325.934)">
            <path d="M0.156,-0.062L0.131,-0.11L0.593,-0.11L0.593,-0L0.044,-0L0.044,-0.104L0.47,-0.598L0.494,-0.55L0.052,-0.55L0.052,-0.66L0.581,-0.66L0.581,-0.556L0.156,-0.062Z" style="fill:#95c3d4;fill-rule:nonzero;"/>
        </g>
    </g>
    <g transform="matrix(1.05264,1.05264,-0.925215,0.925215,-73.228,-887.625)">
        <path d="M693.948,417.354L680.878,443.133L693.889,307.933L706.9,443.133L693.948,417.354Z" style="fill:#ff4545;"/>
    </g>
    <g transform="matrix(0.825151,0.825151,-0.68972,0.68972,-208.379,-828.591)">
        <path d="M933.982,244.091L951.246,449.18C951.266,449.419 951.266,449.66 951.246,449.899L933.982,654.989C933.828,656.822 932.538,658.218 930.997,658.218C929.457,658.218 928.167,656.822 928.013,654.989L910.749,449.899C910.729,449.66 910.729,449.419 910.749,449.18L928.013,244.091C928.167,242.257 929.457,240.861 930.997,240.861C932.538,240.861 933.828,242.257 933.982,244.091ZM930.997,280.27L916.749,449.54L930.997,618.809L945.246,449.54L930.997,280.27Z" style="fill:#95c3d4;"/>
    </g>
    <g transform="matrix(2.74429,0,0,2.74429,-2692.14,-563.561)">
        <path d="M1033.78,276.48C1033.2,278.449 1032.27,280.096 1031.01,281.419C1029.75,282.743 1028.26,283.728 1026.53,284.374C1024.81,285.02 1022.92,285.344 1020.86,285.344C1017.84,285.344 1015.23,284.713 1013.03,283.451C1010.83,282.189 1009.14,280.388 1007.95,278.049C1006.77,275.71 1006.17,272.909 1006.17,269.647C1006.17,266.384 1006.77,263.584 1007.95,261.245C1009.14,258.906 1010.83,257.105 1013.03,255.843C1015.23,254.581 1017.81,253.95 1020.76,253.95C1022.86,253.95 1024.75,254.235 1026.44,254.804C1028.13,255.374 1029.57,256.251 1030.76,257.436C1031.94,258.621 1032.81,260.09 1033.37,261.845L1027.6,264.292C1027.07,262.445 1026.27,261.129 1025.19,260.344C1024.12,259.56 1022.73,259.167 1021.04,259.167C1019.38,259.167 1017.92,259.567 1016.68,260.367C1015.43,261.168 1014.47,262.345 1013.79,263.899C1013.11,265.453 1012.77,267.369 1012.77,269.647C1012.77,271.894 1013.09,273.802 1013.72,275.372C1014.35,276.941 1015.28,278.126 1016.51,278.926C1017.75,279.727 1019.25,280.127 1021.04,280.127C1022.7,280.127 1024.14,279.68 1025.36,278.788C1026.57,277.895 1027.43,276.541 1027.92,274.725L1033.78,276.48Z" style="fill:#3d3d3d;fill-rule:nonzero;"/>
    </g>
    <g transform="matrix(2.74429,0,0,2.74429,-2692.14,-563.561)">
        <path d="M1044.82,251.688L1044.82,277.772C1044.82,278.849 1045,279.604 1045.37,280.034C1045.74,280.465 1046.35,280.681 1047.22,280.681C1047.74,280.681 1048.17,280.642 1048.51,280.565C1048.85,280.488 1049.28,280.373 1049.8,280.219L1049.25,284.374C1048.72,284.682 1048.07,284.92 1047.29,285.09C1046.5,285.259 1045.72,285.344 1044.95,285.344C1042.71,285.344 1041.07,284.797 1040.04,283.705C1039.01,282.612 1038.49,280.865 1038.49,278.465L1038.49,251.688L1044.82,251.688Z" style="fill:#3d3d3d;fill-rule:nonzero;"/>
    </g>
    <g transform="matrix(2.74429,0,0,2.74429,-2692.14,-563.561)">
        <path d="M1056.5,258.475C1055.17,258.475 1054.19,258.19 1053.54,257.621C1052.89,257.051 1052.57,256.212 1052.57,255.104C1052.57,253.966 1052.89,253.112 1053.54,252.542C1054.19,251.973 1055.17,251.688 1056.5,251.688C1057.82,251.688 1058.8,251.973 1059.45,252.542C1060.1,253.112 1060.42,253.966 1060.42,255.104C1060.42,256.212 1060.1,257.051 1059.45,257.621C1058.8,258.19 1057.82,258.475 1056.5,258.475ZM1059.63,261.799L1059.63,284.882L1053.31,284.882L1053.31,261.799L1059.63,261.799Z" style="fill:#3d3d3d;fill-rule:nonzero;"/>
    </g>
    <g transform="matrix(2.74429,0,0,2.74429,-2692.14,-563.561)">
        <path d="M1077.04,285.344C1074.61,285.344 1072.49,284.867 1070.69,283.912C1068.89,282.958 1067.5,281.589 1066.51,279.804C1065.53,278.018 1065.04,275.864 1065.04,273.34C1065.04,270.816 1065.53,268.662 1066.51,266.877C1067.5,265.092 1068.88,263.722 1070.64,262.768C1072.41,261.814 1074.44,261.337 1076.72,261.337C1079.06,261.337 1081.04,261.806 1082.67,262.745C1084.3,263.684 1085.55,264.961 1086.41,266.577C1087.27,268.193 1087.7,270.032 1087.7,272.094C1087.7,272.709 1087.69,273.294 1087.66,273.848C1087.63,274.402 1087.58,274.895 1087.52,275.325L1069.1,275.325L1069.1,270.94L1084.75,270.94L1081.7,272.048C1081.7,270.109 1081.26,268.616 1080.39,267.569C1079.51,266.523 1078.27,266 1076.67,266C1075.5,266 1074.49,266.277 1073.65,266.831C1072.8,267.385 1072.16,268.208 1071.73,269.301C1071.3,270.393 1071.08,271.771 1071.08,273.433C1071.08,275.064 1071.32,276.41 1071.8,277.472C1072.28,278.534 1072.95,279.327 1073.83,279.85C1074.71,280.373 1075.76,280.635 1076.99,280.635C1078.35,280.635 1079.44,280.373 1080.27,279.85C1081.1,279.327 1081.75,278.603 1082.21,277.68L1087.24,279.619C1086.75,280.819 1086,281.85 1085,282.712C1084,283.574 1082.82,284.228 1081.45,284.674C1080.08,285.12 1078.61,285.344 1077.04,285.344ZM1071.64,252.334C1072.71,252.334 1073.57,252.619 1074.2,253.189C1074.83,253.758 1075.15,254.55 1075.15,255.566C1075.15,256.551 1074.83,257.336 1074.2,257.921C1073.57,258.505 1072.71,258.798 1071.64,258.798C1070.59,258.798 1069.76,258.505 1069.14,257.921C1068.53,257.336 1068.22,256.551 1068.22,255.566C1068.22,254.55 1068.53,253.758 1069.14,253.189C1069.76,252.619 1070.59,252.334 1071.64,252.334ZM1081.33,252.334C1082.44,252.334 1083.3,252.619 1083.92,253.189C1084.53,253.758 1084.84,254.55 1084.84,255.566C1084.84,256.551 1084.53,257.336 1083.92,257.921C1083.3,258.505 1082.44,258.798 1081.33,258.798C1080.29,258.798 1079.45,258.505 1078.84,257.921C1078.22,257.336 1077.92,256.551 1077.92,255.566C1077.92,254.55 1078.22,253.758 1078.84,253.189C1079.45,252.619 1080.29,252.334 1081.33,252.334Z" style="fill:#3d3d3d;fill-rule:nonzero;"/>
    </g>
    <g transform="matrix(2.74429,0,0,2.74429,-2692.14,-563.561)">
        <path d="M1093.01,284.882L1093.01,261.799L1098.69,261.799L1099.06,268.724L1098.28,267.985C1098.64,266.477 1099.23,265.238 1100.03,264.269C1100.83,263.299 1101.81,262.568 1102.96,262.076C1104.12,261.583 1105.39,261.337 1106.77,261.337C1108.37,261.337 1109.79,261.645 1111.04,262.26C1112.29,262.876 1113.27,263.807 1114,265.053C1114.72,266.3 1115.08,267.862 1115.08,269.739L1115.08,284.882L1108.76,284.882L1108.76,271.54C1108.76,269.57 1108.37,268.208 1107.6,267.454C1106.83,266.7 1105.83,266.323 1104.6,266.323C1103.74,266.323 1102.9,266.531 1102.09,266.946C1101.27,267.362 1100.61,268.031 1100.1,268.954C1099.59,269.878 1099.34,271.109 1099.34,272.648L1099.34,284.882L1093.01,284.882Z" style="fill:#3d3d3d;fill-rule:nonzero;"/>
    </g>
    <g transform="matrix(2.74429,0,0,2.74429,-2692.14,-563.561)">
        <path d="M1129.58,254.735L1129.58,277.357C1129.58,278.465 1129.86,279.273 1130.43,279.78C1131,280.288 1131.78,280.542 1132.76,280.542C1133.56,280.542 1134.25,280.427 1134.82,280.196C1135.39,279.965 1135.9,279.65 1136.36,279.25L1137.38,283.451C1136.64,284.036 1135.72,284.497 1134.61,284.836C1133.5,285.174 1132.33,285.344 1131.1,285.344C1129.56,285.344 1128.2,285.113 1127.02,284.651C1125.83,284.189 1124.91,283.451 1124.25,282.435C1123.58,281.419 1123.25,280.065 1123.25,278.372L1123.25,256.489L1129.58,254.735ZM1136.96,261.799L1136.96,266.508L1119.01,266.508L1119.01,261.799L1136.96,261.799Z" style="fill:#3d3d3d;fill-rule:nonzero;"/>
    </g>
    <g transform="matrix(2.74429,0,0,2.74429,-2692.14,-563.561)">
        <path d="M1010.79,300.579L996.848,316.414L996.34,315.906L988.723,324.539L987.753,318.63L1003.4,300.579L1010.79,300.579ZM990.892,300.579L990.892,331.048L984.522,331.048L984.522,300.579L990.892,300.579ZM998.602,311.104L1011.16,331.048L1003.87,331.048L993.709,314.659L998.602,311.104Z" style="fill:#3d3d3d;fill-rule:nonzero;"/>
    </g>
    <g transform="matrix(2.74429,0,0,2.74429,-2692.14,-563.561)">
        <path d="M1023.86,307.504C1026.19,307.504 1028.25,307.981 1030.02,308.935C1031.79,309.889 1033.17,311.258 1034.17,313.043C1035.17,314.829 1035.67,316.983 1035.67,319.507C1035.67,322 1035.17,324.147 1034.17,325.947C1033.17,327.748 1031.79,329.125 1030.02,330.079C1028.25,331.033 1026.19,331.51 1023.86,331.51C1021.55,331.51 1019.5,331.033 1017.72,330.079C1015.93,329.125 1014.54,327.748 1013.54,325.947C1012.54,324.147 1012.04,322 1012.04,319.507C1012.04,316.983 1012.54,314.829 1013.54,313.043C1014.54,311.258 1015.93,309.889 1017.72,308.935C1019.5,307.981 1021.55,307.504 1023.86,307.504ZM1023.86,312.212C1022.69,312.212 1021.69,312.482 1020.88,313.02C1020.06,313.559 1019.44,314.367 1019.01,315.444C1018.58,316.521 1018.36,317.876 1018.36,319.507C1018.36,321.138 1018.58,322.492 1019.01,323.569C1019.44,324.647 1020.06,325.455 1020.88,325.993C1021.69,326.532 1022.69,326.801 1023.86,326.801C1024.99,326.801 1025.97,326.532 1026.79,325.993C1027.6,325.455 1028.23,324.647 1028.66,323.569C1029.09,322.492 1029.3,321.138 1029.3,319.507C1029.3,317.876 1029.09,316.521 1028.66,315.444C1028.23,314.367 1027.6,313.559 1026.79,313.02C1025.97,312.482 1024.99,312.212 1023.86,312.212Z" style="fill:#3d3d3d;fill-rule:nonzero;"/>
    </g>
    <g transform="matrix(2.74429,0,0,2.74429,-2692.14,-563.561)">
        <path d="M1040.98,331.048L1040.98,307.965L1046.66,307.965L1046.89,312.12C1047.66,310.581 1048.72,309.427 1050.06,308.658C1051.39,307.888 1052.88,307.504 1054.51,307.504C1056.17,307.504 1057.67,307.888 1059.01,308.658C1060.35,309.427 1061.36,310.566 1062.04,312.074C1062.53,311.058 1063.19,310.212 1064.02,309.535C1064.85,308.858 1065.78,308.35 1066.79,308.011C1067.81,307.673 1068.84,307.504 1069.88,307.504C1071.39,307.504 1072.77,307.811 1074.02,308.427C1075.26,309.042 1076.25,309.966 1076.99,311.197C1077.73,312.428 1078.1,313.998 1078.1,315.906L1078.1,331.048L1071.78,331.048L1071.78,317.152C1071.78,315.46 1071.41,314.259 1070.67,313.551C1069.93,312.843 1068.98,312.489 1067.81,312.489C1066.88,312.489 1066.03,312.72 1065.24,313.182C1064.46,313.644 1063.84,314.328 1063.4,315.236C1062.95,316.144 1062.73,317.275 1062.73,318.63L1062.73,331.048L1056.4,331.048L1056.4,317.152C1056.4,315.46 1056.03,314.259 1055.27,313.551C1054.52,312.843 1053.56,312.489 1052.39,312.489C1051.59,312.489 1050.79,312.705 1050.01,313.136C1049.22,313.567 1048.58,314.244 1048.07,315.167C1047.56,316.09 1047.31,317.306 1047.31,318.814L1047.31,331.048L1040.98,331.048Z" style="fill:#3d3d3d;fill-rule:nonzero;"/>
    </g>
    <g transform="matrix(2.74429,0,0,2.74429,-2692.14,-563.561)">
        <path d="M1084.61,340.743L1084.61,307.965L1090.29,307.965L1090.7,315.306L1089.92,314.475C1090.2,313.12 1090.71,311.92 1091.47,310.874C1092.22,309.827 1093.18,309.004 1094.35,308.404C1095.52,307.804 1096.83,307.504 1098.28,307.504C1100.15,307.504 1101.83,307.981 1103.31,308.935C1104.79,309.889 1105.95,311.251 1106.79,313.02C1107.64,314.79 1108.06,316.937 1108.06,319.461C1108.06,321.984 1107.63,324.147 1106.77,325.947C1105.91,327.748 1104.73,329.125 1103.24,330.079C1101.75,331.033 1100.05,331.51 1098.14,331.51C1096.11,331.51 1094.42,330.941 1093.08,329.802C1091.74,328.663 1090.83,327.232 1090.34,325.508L1090.93,324.539L1090.93,340.743L1084.61,340.743ZM1096.29,326.663C1097.98,326.663 1099.32,326.055 1100.28,324.839C1101.25,323.623 1101.74,321.846 1101.74,319.507C1101.74,317.168 1101.27,315.39 1100.33,314.175C1099.39,312.959 1098.08,312.351 1096.38,312.351C1095.31,312.351 1094.36,312.636 1093.54,313.205C1092.73,313.774 1092.09,314.59 1091.63,315.652C1091.17,316.714 1090.93,317.999 1090.93,319.507C1090.93,320.953 1091.15,322.223 1091.58,323.316C1092.01,324.408 1092.64,325.239 1093.45,325.809C1094.27,326.378 1095.21,326.663 1096.29,326.663Z" style="fill:#3d3d3d;fill-rule:nonzero;"/>
    </g>
    <g transform="matrix(2.74429,0,0,2.74429,-2692.14,-563.561)">
        <path d="M1126.58,316.321C1126.58,314.998 1126.2,313.967 1125.44,313.228C1124.69,312.489 1123.7,312.12 1122.47,312.12C1121.33,312.12 1120.33,312.413 1119.47,312.997C1118.61,313.582 1117.97,314.552 1117.57,315.906L1112.17,314.244C1112.69,312.212 1113.84,310.581 1115.61,309.35C1117.38,308.119 1119.76,307.504 1122.74,307.504C1124.78,307.504 1126.55,307.819 1128.05,308.45C1129.56,309.081 1130.74,310.027 1131.59,311.289C1132.43,312.551 1132.86,314.136 1132.86,316.044L1132.86,325.416C1132.86,326.586 1133.41,327.17 1134.52,327.17C1135.04,327.17 1135.53,327.094 1135.99,326.94L1135.62,330.864C1134.82,331.264 1133.82,331.464 1132.62,331.464C1131.55,331.464 1130.58,331.279 1129.71,330.91C1128.85,330.541 1128.18,329.979 1127.68,329.225C1127.19,328.471 1126.94,327.524 1126.94,326.386L1126.94,326.201L1128.05,326.016C1127.87,327.186 1127.36,328.178 1126.53,328.994C1125.7,329.81 1124.69,330.433 1123.51,330.864C1122.32,331.295 1121.1,331.51 1119.84,331.51C1118.27,331.51 1116.91,331.272 1115.77,330.795C1114.63,330.317 1113.76,329.617 1113.14,328.694C1112.53,327.771 1112.22,326.632 1112.22,325.278C1112.22,323.554 1112.77,322.146 1113.88,321.053C1114.99,319.961 1116.57,319.214 1118.63,318.814L1127.32,317.06L1127.27,320.984L1121.73,322.092C1120.68,322.308 1119.89,322.592 1119.35,322.946C1118.81,323.3 1118.54,323.877 1118.54,324.677C1118.54,325.447 1118.83,326.032 1119.4,326.432C1119.97,326.832 1120.65,327.032 1121.45,327.032C1122.1,327.032 1122.73,326.955 1123.34,326.801C1123.96,326.647 1124.51,326.401 1125.01,326.062C1125.5,325.724 1125.88,325.262 1126.16,324.677C1126.44,324.093 1126.58,323.385 1126.58,322.554L1126.58,316.321Z" style="fill:#3d3d3d;fill-rule:nonzero;"/>
    </g>
    <g transform="matrix(2.74429,0,0,2.74429,-2692.14,-563.561)">
        <path d="M1149.15,331.51C1146.81,331.51 1144.68,331.095 1142.76,330.264C1140.83,329.433 1139.27,328.263 1138.07,326.755L1141.72,323.062C1142.46,324.17 1143.44,325.078 1144.67,325.785C1145.9,326.493 1147.37,326.847 1149.06,326.847C1150.26,326.847 1151.22,326.67 1151.94,326.316C1152.67,325.962 1153.03,325.401 1153.03,324.631C1153.03,324.139 1152.86,323.716 1152.52,323.362C1152.18,323.008 1151.51,322.723 1150.49,322.508L1146.43,321.677C1143.75,321.123 1141.85,320.284 1140.73,319.161C1139.6,318.037 1139.04,316.583 1139.04,314.798C1139.04,313.536 1139.42,312.351 1140.17,311.243C1140.93,310.135 1142.06,309.235 1143.57,308.542C1145.07,307.85 1146.95,307.504 1149.2,307.504C1151.51,307.504 1153.51,307.865 1155.22,308.588C1156.93,309.312 1158.28,310.381 1159.26,311.797L1155.48,315.49C1154.8,314.413 1153.91,313.59 1152.82,313.02C1151.73,312.451 1150.58,312.166 1149.38,312.166C1148.52,312.166 1147.78,312.259 1147.17,312.443C1146.55,312.628 1146.09,312.882 1145.78,313.205C1145.47,313.528 1145.32,313.936 1145.32,314.428C1145.32,314.921 1145.54,315.344 1145.97,315.698C1146.4,316.052 1147.18,316.352 1148.32,316.598L1153.03,317.568C1155.31,318.029 1156.94,318.807 1157.92,319.899C1158.91,320.992 1159.4,322.308 1159.4,323.846C1159.4,325.324 1159.01,326.64 1158.22,327.794C1157.44,328.948 1156.28,329.856 1154.76,330.518C1153.24,331.179 1151.37,331.51 1149.15,331.51Z" style="fill:#3d3d3d;fill-rule:nonzero;"/>
    </g>
</svg>
